<svg width="126.889221" height="21.419922" viewBox="0 0 126.889 21.4199" fill="none" xmlns="http://www.w3.org/2000/svg" xmlns:xlink="http://www.w3.org/1999/xlink">
	<desc>
			Created with Pixso.
	</desc>
	<defs/>
	<path id="Метрика" d="M10.29 11.1001L20.34 0L20.61 0L20.61 21.1799L16.62 21.1799L16.62 9.84009L10.41 16.47L10.14 16.47L3.98999 9.84009L3.98999 21.1799L0 21.1799L0 0L0.23999 0L10.29 11.1001ZM71.7809 0.179932L75.7709 0.179932L75.7709 11.97L87.6808 0L87.9509 0L87.9509 21.1799L83.9609 21.1799L83.9609 9.41992L72.0508 21.4199L71.7809 21.4199L71.7809 0.179932ZM23.0062 0.179932L36.7762 0.179932L36.7762 4.02002L23.0062 4.02002L23.0062 0.179932ZM38.1133 4.02002L38.1133 0.179932L53.4133 0.179932L53.4133 4.02002L38.1133 4.02002ZM55.0734 0.179932L62.8434 0.179932C67.5234 0.179932 70.1334 3.23999 70.1334 7.08008C70.1334 10.9199 67.5234 13.98 62.8434 13.98L59.0634 13.98L59.0634 21.1799L55.0734 21.1799L55.0734 10.1699L62.7534 10.1699C64.7634 10.1699 66.0234 8.88013 66.0234 7.08008C66.0234 5.28003 64.7634 4.02002 62.7534 4.02002L55.0734 4.02002L55.0734 0.179932ZM107.163 21.1799L102.183 21.1799L96.9033 12.5701L94.3533 12.5701L94.3533 21.1799L90.3633 21.1799L90.3633 0.179932L94.3533 0.179932L94.3533 8.76001L96.8133 8.76001L102.333 0.179932L106.713 0.179932L100.383 10.53L107.163 21.1799ZM115.129 0.179932L119.209 0.179932L126.889 21.1799L122.359 21.1799L117.169 6.17993L111.979 21.1799L107.449 21.1799L115.129 0.179932ZM47.7734 21.1799L43.7834 21.1799L43.7834 7.13989L47.7734 7.13989L47.7734 21.1799ZM23.0062 8.79004L35.8463 8.79004L35.8463 12.6001L23.0062 12.6001L23.0062 8.79004ZM23.0062 21.1799L23.0062 17.3701L36.9562 17.3701L36.9562 21.1799L23.0062 21.1799Z" fill="#121212" fill-opacity="1.000000" fill-rule="evenodd"/>
</svg>
