<svg width="29.671051" height="29.670593" viewBox="0 0 29.6711 29.6706" fill="none" xmlns="http://www.w3.org/2000/svg" xmlns:xlink="http://www.w3.org/1999/xlink">
	<desc>
			Created with Pixso.
	</desc>
	<defs/>
	<path id="Vector" d="M29.1086 3.27527C29.2868 3.09735 29.4281 2.88605 29.5247 2.6535C29.6212 2.4209 29.6709 2.17157 29.6711 1.9198C29.6712 1.66797 29.6218 1.41864 29.5255 1.18591C29.4293 0.953247 29.2882 0.74176 29.1103 0.563599C28.9323 0.385437 28.7211 0.24408 28.4885 0.147583C28.2559 0.0510864 28.0066 0.00134277 27.7548 0.00115967C27.503 0.0010376 27.2536 0.0504761 27.0209 0.146667C26.7882 0.24292 26.5768 0.384033 26.3986 0.561951L14.8353 12.1253L3.27527 0.561951C2.91547 0.202148 2.42749 0 1.91864 0C1.40979 0 0.921753 0.202148 0.561951 0.561951C0.202148 0.921753 0 1.40979 0 1.91864C0 2.42749 0.202148 2.91547 0.561951 3.27527L12.1253 14.8353L0.561951 26.3953C0.383789 26.5734 0.242493 26.785 0.146057 27.0177C0.0496216 27.2505 0 27.5 0 27.752C0 28.0039 0.0496216 28.2534 0.146057 28.4861C0.242493 28.7189 0.383789 28.9305 0.561951 29.1086C0.921753 29.4684 1.40979 29.6706 1.91864 29.6706C2.17059 29.6706 2.42004 29.6209 2.65283 29.5245C2.88562 29.4281 3.09711 29.2867 3.27527 29.1086L14.8353 17.5453L26.3986 29.1086C26.7584 29.468 27.2462 29.6697 27.7548 29.6694C28.2633 29.6691 28.7509 29.4667 29.1103 29.1069C29.4697 28.7471 29.6714 28.2593 29.6711 27.7508C29.6707 27.2422 29.4684 26.7546 29.1086 26.3953L17.5453 14.8353L29.1086 3.27527Z" fill="#000000" fill-opacity="1.000000" fill-rule="evenodd"/>
</svg>
