<svg width="10.176270" height="10.176025" viewBox="0 0 20.1763 20.176" fill="none" xmlns="http://www.w3.org/2000/svg" xmlns:xlink="http://www.w3.org/1999/xlink">
	<desc>
			Created with Pixso.
	</desc>
	<defs/>
	<path id="Vector" d="M19.7939 2.22729C19.915 2.1062 20.0112 1.9624 20.0767 1.80444C20.1426 1.64624 20.1763 1.47681 20.1763 1.30542C20.1763 1.13428 20.1426 0.9646 20.0771 0.806396C20.0117 0.648193 19.916 0.504395 19.7949 0.383301C19.6738 0.262207 19.5303 0.166016 19.3721 0.100342C19.2139 0.034668 19.0444 0.000976562 18.873 0.000732422C18.7021 0.000732422 18.5322 0.0344238 18.374 0.0998535C18.2158 0.165283 18.0723 0.26123 17.9512 0.38208L10.0879 8.24512L2.22705 0.38208C1.98242 0.137451 1.65088 0 1.30469 0C0.958496 0 0.626953 0.137451 0.382324 0.38208C0.137695 0.626709 0 0.95874 0 1.30469C0 1.65063 0.137695 1.98242 0.382324 2.22729L8.24512 10.0879L0.382324 17.9487C0.260742 18.0698 0.165039 18.2139 0.0991211 18.3721C0.0336914 18.5303 0 18.7 0 18.8713C0 19.0427 0.0336914 19.2124 0.0991211 19.3706C0.165039 19.5288 0.260742 19.6726 0.382324 19.7939C0.626953 20.0386 0.958496 20.176 1.30469 20.176C1.47607 20.176 1.64551 20.1423 1.80371 20.0767C1.9624 20.011 2.10596 19.915 2.22705 19.7939L10.0879 11.9309L17.9512 19.7939C18.1958 20.0383 18.5273 20.1753 18.873 20.1753C19.2192 20.175 19.5508 20.0374 19.7949 19.7927C20.0396 19.5481 20.1768 19.2163 20.1763 18.8706C20.1763 18.5247 20.0386 18.1931 19.7939 17.9487L11.9307 10.0879L19.7939 2.22729Z" fill="#000000" fill-opacity="1.000000" fill-rule="evenodd"/>
</svg>
