<svg width="13.000000" height="22.000000" viewBox="0 0 13 22" fill="none" xmlns="http://www.w3.org/2000/svg" xmlns:xlink="http://www.w3.org/1999/xlink">
	<desc>
			Created with Pixso.
	</desc>
	<defs/>
	<path id="Vector" d="M10.5 0L2.5 0C1.83698 0 1.20105 0.263428 0.732239 0.732178C0.263367 1.20117 0 1.83691 0 2.5L0 19.5C0 20.1631 0.263367 20.7988 0.732239 21.2678C1.20105 21.7366 1.83698 22 2.5 22L10.5 22C11.163 22 11.799 21.7366 12.2678 21.2678C12.7366 20.7988 13 20.1631 13 19.5L13 2.5C13 1.83691 12.7366 1.20117 12.2678 0.732178C11.799 0.263428 11.163 0 10.5 0ZM6.5 21C5.66998 21 5 20.3301 5 19.5C5 18.6699 5.66998 18 6.5 18C7.33002 18 8 18.6699 8 19.5C8 20.3301 7.33002 21 6.5 21ZM11 17L2 17L2 3L11 3L11 17Z" fill="#000000" fill-opacity="1.000000" fill-rule="nonzero"/>
</svg>
